<?xml version="1.0" standalone="no"?>
<!DOCTYPE svg PUBLIC "-//W3C//DTD SVG 20010904//EN"
 "http://www.w3.org/TR/2001/REC-SVG-20010904/DTD/svg10.dtd">
<svg version="1.0" xmlns="http://www.w3.org/2000/svg"
 width="856.000000pt" height="1280.000000pt" viewBox="0 0 856.000000 1280.000000"
 preserveAspectRatio="xMidYMid meet">
<metadata>
Created by potrace 1.15, written by Peter Selinger 2001-2017
</metadata>
<g transform="translate(0.000000,1280.000000) scale(0.100000,-0.100000)"
fill="#000000" stroke="none">
<path d="M4875 12793 c-32 -8 -45 -24 -45 -53 0 -20 -6 -29 -21 -33 -12 -3
-19 -12 -17 -19 4 -13 56 -52 81 -61 8 -3 6 -10 -7 -19 -31 -24 -14 -65 30
-77 36 -10 84 -46 84 -63 0 -20 -62 -5 -108 26 -50 33 -72 33 -72 -1 0 -26
-30 -25 -61 1 -17 15 -37 25 -43 23 -17 -5 -76 -108 -76 -132 0 -11 16 -32 35
-48 19 -15 35 -37 35 -47 0 -25 10 -25 49 -3 29 17 32 17 60 0 16 -9 31 -17
34 -17 2 0 21 14 42 30 38 30 88 40 100 20 12 -19 -22 -56 -62 -68 -21 -6 -47
-18 -58 -27 -20 -15 -20 -15 5 -36 16 -14 20 -23 13 -26 -60 -21 -107 -91 -57
-86 18 2 21 -3 20 -40 l-1 -42 85 0 85 0 -3 65 c-1 49 0 61 8 48 6 -10 17 -18
25 -18 16 0 20 15 29 95 12 102 56 76 56 -33 l0 -64 31 6 31 6 -4 -53 -3 -52
47 -3 c76 -5 111 9 124 49 8 22 19 35 33 37 11 2 21 10 21 17 0 18 -48 55 -71
55 -26 0 -33 19 -15 39 9 10 16 20 16 23 0 2 -21 19 -47 35 -27 17 -59 43 -72
57 l-24 26 40 0 c32 0 50 -8 83 -35 50 -42 68 -44 76 -7 3 15 6 30 7 34 1 4
22 -8 46 -27 24 -19 47 -35 50 -35 17 0 56 94 56 133 -1 43 -36 111 -63 122
-8 3 -30 -9 -50 -25 -20 -17 -38 -27 -39 -23 0 5 -4 20 -7 36 -8 36 -26 34
-76 -8 -41 -34 -83 -45 -95 -25 -10 16 13 39 66 65 54 28 66 49 39 68 -19 13
-17 15 30 37 28 13 50 28 50 34 0 6 -12 22 -25 35 -14 13 -25 31 -25 41 0 32
-28 44 -103 44 l-72 1 3 -52 4 -51 -34 1 -33 2 0 -85 c0 -71 -3 -85 -17 -88
-12 -2 -19 9 -27 48 -6 28 -11 63 -11 79 0 15 -6 35 -13 46 -13 17 -15 17 -30
-5 -15 -22 -16 -20 -14 41 l2 64 -55 2 c-30 0 -64 -1 -75 -4z"/>
<path d="M6937 11795 c-10 -10 -17 -32 -17 -56 0 -35 -3 -41 -30 -50 -28 -10
-30 -14 -30 -62 0 -98 -32 -103 -47 -7 -7 51 -10 55 -38 60 -28 5 -30 8 -27
45 2 25 -3 48 -12 60 -16 19 -16 19 -30 1 -14 -17 -16 -17 -38 -2 -46 32 -98
8 -98 -46 0 -17 -7 -27 -20 -31 -13 -3 -20 -14 -20 -31 0 -20 8 -29 34 -40 30
-12 34 -19 33 -47 -2 -34 -1 -35 95 -94 18 -11 33 -27 33 -35 0 -26 -39 -22
-87 10 -55 37 -93 37 -92 3 0 -13 -1 -23 -2 -23 -2 0 -24 14 -48 32 -45 31
-46 31 -66 13 -11 -10 -19 -24 -16 -31 2 -6 -9 -24 -25 -40 -16 -15 -29 -32
-29 -37 0 -5 13 -21 29 -36 22 -20 28 -34 24 -50 -3 -11 0 -28 7 -36 11 -14
16 -14 39 1 14 9 38 28 53 41 l27 25 3 -33 c3 -29 6 -34 27 -31 13 1 38 15 57
31 40 35 72 47 87 32 17 -17 -1 -40 -64 -83 -53 -36 -56 -43 -44 -83 5 -17 0
-24 -26 -35 -38 -17 -61 -50 -41 -57 23 -9 42 -34 42 -58 0 -29 26 -45 73 -45
56 0 97 19 97 44 0 12 13 35 30 51 28 27 30 33 29 98 -1 49 3 73 14 84 26 26
41 -18 34 -104 l-6 -74 32 3 c30 3 33 0 41 -37 4 -22 10 -46 12 -52 5 -21 32
-15 39 8 l7 21 24 -23 c34 -32 75 -17 90 31 6 19 21 39 33 45 35 16 23 42 -33
70 -14 7 -23 23 -26 50 -5 37 -9 42 -62 67 -34 17 -59 35 -63 49 -12 38 9 43
72 15 113 -51 212 -53 223 -6 3 14 15 27 25 29 52 9 57 41 15 91 -17 19 -30
42 -30 52 0 32 -28 31 -69 -1 -46 -37 -48 -37 -47 -8 1 31 -38 35 -75 8 -39
-29 -78 -43 -100 -36 -29 10 -23 19 37 59 41 27 60 48 74 81 13 31 27 46 45
51 33 8 33 41 1 54 -21 8 -25 17 -28 57 -3 41 -6 48 -26 51 -13 2 -34 -4 -48
-13 -24 -15 -26 -15 -43 6 -16 20 -18 20 -34 4z"/>
<path d="M4526 11359 c-53 -59 -63 -87 -46 -130 16 -37 67 -109 79 -109 14 0
94 121 93 143 0 18 -68 147 -77 147 -2 0 -24 -23 -49 -51z"/>
<path d="M3973 11344 c3 -16 11 -63 17 -104 20 -134 42 -219 64 -252 11 -17
50 -47 85 -66 72 -40 74 -39 91 41 16 76 12 111 -16 153 -36 53 -180 210 -216
236 l-30 21 5 -29z"/>
<path d="M5094 11254 c-115 -93 -223 -197 -238 -228 -13 -28 -14 -43 -4 -95 7
-36 18 -65 26 -69 24 -9 117 26 144 55 36 38 151 363 135 380 -3 2 -31 -17
-63 -43z"/>
<path d="M4334 11182 c-6 -4 -16 -17 -23 -29 -17 -32 5 -70 78 -133 35 -30 64
-66 70 -84 6 -17 10 -94 9 -171 -1 -156 13 -215 51 -215 44 0 71 107 71 274
l0 114 90 52 c100 59 130 84 130 106 0 25 -31 64 -51 64 -10 0 -63 -23 -118
-51 l-100 -51 -43 35 c-44 36 -138 97 -147 97 -4 0 -11 -4 -17 -8z"/>
<path d="M2228 11114 c-57 -30 -76 -119 -37 -168 39 -50 5 -45 -71 10 -33 24
-35 24 -48 7 -18 -24 -8 -71 23 -103 31 -32 31 -37 3 -36 -62 2 -10 -128 61
-155 36 -14 119 -1 142 22 10 10 19 32 19 48 0 32 12 45 52 55 31 7 48 48 31
75 -8 12 -24 15 -72 13 -72 -5 -79 8 -18 32 50 19 77 58 77 111 0 47 -13 71
-50 90 -36 19 -77 19 -112 -1z"/>
<path d="M1589 10962 c-26 -23 -33 -38 -37 -80 -4 -46 -2 -54 24 -80 28 -28
103 -50 125 -37 5 4 9 3 9 -2 0 -4 -24 -17 -53 -28 -98 -38 -66 -75 66 -76 60
0 69 -2 53 -12 -10 -7 -28 -20 -40 -29 -21 -18 -21 -18 -2 -33 27 -20 93 -19
136 3 43 21 70 72 70 133 0 70 -31 86 -57 29 l-12 -25 0 30 c0 17 6 41 14 55
8 14 14 37 15 51 0 25 -36 69 -57 69 -7 0 -24 -25 -38 -55 -15 -30 -29 -55
-31 -55 -1 0 -3 18 -2 39 0 49 -27 96 -68 116 -47 22 -80 18 -115 -13z"/>
<path d="M4286 10975 c-8 -8 -22 -40 -31 -70 -18 -64 -24 -65 -103 -33 l-54
23 -24 -28 c-35 -41 -31 -63 19 -93 121 -77 151 -101 187 -153 48 -72 71 -91
106 -94 42 -3 42 27 3 145 -32 95 -33 100 -21 168 15 89 15 123 0 138 -17 17
-64 15 -82 -3z"/>
<path d="M3895 10956 c-16 -12 -20 -31 -25 -112 -3 -55 -9 -104 -13 -111 -4
-7 -45 -33 -91 -58 -110 -59 -112 -63 -86 -114 11 -23 27 -41 34 -41 8 0 58
22 112 49 l98 49 100 -68 c111 -75 184 -114 234 -125 31 -6 32 -5 32 25 0 48
-32 84 -156 176 -62 46 -117 92 -122 101 -5 10 -12 62 -14 117 -3 82 -7 101
-23 112 -24 18 -56 18 -80 0z"/>
<path d="M4727 10948 c-13 -10 -19 -38 -25 -113 -7 -83 -15 -114 -45 -181 -39
-85 -47 -141 -23 -150 21 -8 49 10 133 87 42 38 102 81 132 95 100 46 106 49
109 72 2 13 -4 35 -13 49 -18 27 -12 27 -137 7 l-38 -6 0 50 c0 74 -13 102
-48 102 -15 0 -36 -6 -45 -12z"/>
<path d="M3633 10917 c-23 -7 -44 -14 -47 -17 -10 -11 60 -135 84 -148 29 -15
125 -11 142 6 16 16 -4 78 -42 130 -33 46 -55 51 -137 29z"/>
<path d="M5079 10874 c-9 -11 -15 -51 -17 -121 l-4 -104 -124 -59 c-81 -39
-139 -75 -169 -103 -46 -45 -58 -83 -29 -94 28 -11 136 27 252 88 l113 59 94
-54 c127 -74 130 -74 155 -34 32 53 27 64 -58 118 -44 28 -84 61 -90 75 -7 14
-12 63 -13 108 -1 119 -6 131 -55 135 -29 2 -45 -2 -55 -14z"/>
<path d="M5285 10782 c-14 -21 -28 -55 -31 -74 -6 -32 -4 -36 31 -52 71 -34
134 -3 175 83 30 66 22 74 -74 79 l-74 4 -27 -40z"/>
<path d="M1995 10705 c-25 -66 -31 -128 -13 -142 11 -9 25 -8 63 4 28 9 56 18
63 19 29 8 11 56 -41 111 l-53 55 -19 -47z"/>
<path d="M2491 10668 c-5 -13 -12 -31 -15 -40 -4 -14 -17 -18 -55 -18 -57 0
-66 -10 -77 -78 -12 -77 48 -182 106 -182 44 0 56 23 29 59 -37 51 -13 47 38
-6 46 -47 89 -68 120 -56 20 8 16 24 -21 86 -19 31 -32 57 -29 57 3 0 18 -11
35 -25 55 -46 105 -45 159 3 44 40 50 97 14 140 -54 64 -170 62 -187 -4 -4
-17 -15 -37 -24 -45 -15 -12 -16 -7 -13 56 l4 70 -37 3 c-32 3 -39 -1 -47 -20z"/>
<path d="M2290 10635 c-8 -2 -31 -6 -51 -9 -37 -7 -79 -38 -79 -60 0 -7 15
-17 33 -23 27 -8 32 -13 29 -36 -4 -40 25 -47 53 -14 29 32 59 111 52 132 -6
15 -9 16 -37 10z"/>
<path d="M2030 10521 c-15 -31 -28 -43 -51 -48 -39 -7 -47 -27 -25 -63 17 -31
22 -125 6 -135 -5 -3 -16 10 -24 30 -25 58 -67 45 -79 -25 -4 -19 -9 -45 -13
-57 -6 -22 -4 -23 47 -23 72 0 101 16 114 62 16 57 25 61 68 33 l36 -25 32 35
c18 19 36 35 41 35 5 0 21 -14 36 -31 25 -30 29 -31 80 -26 31 3 62 13 71 22
15 14 14 19 -5 53 -46 78 -110 94 -116 29 l-3 -32 -24 39 c-13 21 -25 54 -26
73 -3 42 -4 44 -61 54 -26 5 -55 16 -65 25 -16 15 -19 13 -39 -25z"/>
<path d="M1818 10530 c-48 -14 -50 -19 -19 -64 30 -43 92 -83 111 -71 6 3 10
22 10 42 0 21 8 45 17 56 17 18 17 19 -2 33 -20 15 -74 17 -117 4z"/>
<path d="M3848 10523 c-16 -19 -38 -58 -38 -68 0 -3 21 -28 47 -56 l47 -50
-46 -42 c-50 -47 -64 -77 -49 -106 18 -33 47 -35 99 -5 97 56 124 66 195 74
90 10 159 36 155 58 -5 26 -63 53 -135 63 -74 10 -109 30 -193 104 -28 25 -54
45 -59 45 -4 0 -15 -8 -23 -17z"/>
<path d="M1538 10469 c-25 -14 -22 -31 12 -74 16 -20 27 -41 24 -46 -7 -12 -5
-12 -44 16 -51 38 -94 34 -141 -14 -49 -48 -54 -102 -14 -149 46 -55 121 -47
186 21 l41 41 -8 -73 -7 -74 29 7 c40 9 74 50 74 88 l0 31 24 -22 c75 -71 147
85 86 184 -33 54 -99 82 -128 53 -8 -8 -8 -16 0 -32 7 -14 -4 -8 -30 17 -42
37 -72 45 -104 26z"/>
<path d="M4425 10441 c-70 -40 -92 -91 -73 -174 11 -49 30 -72 80 -98 47 -24
82 -24 134 0 56 25 87 71 92 137 5 66 -10 93 -76 135 -58 36 -94 37 -157 0z"/>
<path d="M3630 10453 c-104 -11 -320 -60 -320 -73 0 -9 317 -121 360 -127 27
-4 45 2 80 26 25 16 56 41 68 54 l23 25 -30 35 c-17 19 -46 42 -65 51 -33 16
-45 17 -116 9z"/>
<path d="M5090 10415 c-82 -47 -114 -57 -210 -72 -52 -8 -106 -21 -118 -29
-23 -15 -23 -16 -5 -36 26 -28 65 -47 124 -58 66 -13 108 -33 176 -86 31 -24
62 -44 69 -44 17 0 74 49 74 64 0 7 -23 38 -51 69 -28 31 -46 57 -41 57 5 0
27 17 50 38 45 42 54 78 26 106 -22 22 -42 20 -94 -9z"/>
<path d="M7424 10360 c-28 -11 -74 -67 -74 -89 0 -27 39 -72 76 -87 60 -25
114 16 114 87 0 51 -8 67 -41 84 -31 17 -44 18 -75 5z"/>
<path d="M5277 10345 c-44 -15 -107 -61 -107 -78 1 -17 53 -76 87 -98 16 -11
46 -19 68 -19 59 1 338 64 343 78 5 15 -69 48 -198 90 -123 40 -147 43 -193
27z"/>
<path d="M2136 10249 c-15 -21 -16 -22 -34 -6 -24 22 -29 21 -42 -3 -14 -25 5
-62 54 -109 42 -41 53 -36 71 36 20 80 -12 134 -49 82z"/>
<path d="M2325 10246 c-40 -17 -90 -75 -105 -120 -9 -27 -9 -44 0 -71 6 -19
15 -35 18 -35 4 0 20 16 35 36 16 19 31 33 34 31 2 -3 -6 -28 -18 -57 -27 -63
-19 -123 18 -128 16 -2 28 9 55 52 18 31 35 56 38 56 3 0 3 -24 2 -54 -3 -50
-1 -57 30 -92 29 -31 41 -37 74 -37 50 0 87 24 108 68 21 43 20 63 -4 103 -25
41 -77 64 -122 55 -33 -6 -33 -6 -15 14 10 11 36 23 58 27 52 8 61 32 25 63
-32 27 -65 29 -130 7 -26 -9 -49 -14 -52 -12 -2 3 15 18 38 33 l42 28 -28 23
c-30 27 -57 29 -101 10z"/>
<path d="M4147 10213 c-10 -3 -29 -15 -43 -28 -14 -13 -66 -44 -115 -70 l-88
-46 -92 56 c-51 30 -102 55 -114 55 -12 0 -32 -11 -45 -25 -29 -31 -23 -45 41
-93 24 -18 64 -49 88 -69 l44 -36 -7 -81 c-4 -45 -9 -90 -12 -102 -7 -26 19
-54 51 -54 13 0 36 10 50 23 23 19 28 35 37 107 13 105 23 117 147 179 96 47
201 132 201 163 0 8 -10 18 -22 22 -26 6 -94 6 -121 -1z"/>
<path d="M4695 10168 c22 -71 73 -120 223 -215 51 -32 93 -61 94 -66 0 -4 -5
-54 -11 -112 -7 -57 -10 -109 -6 -114 3 -6 26 -11 50 -11 55 0 61 10 80 126 8
47 20 96 28 107 8 12 50 40 93 62 66 34 80 44 82 67 2 15 -2 37 -8 49 -10 18
-18 20 -51 15 -21 -3 -75 -22 -119 -42 l-80 -35 -88 61 c-48 33 -98 70 -112
81 -27 20 -117 49 -158 49 -20 0 -22 -4 -17 -22z"/>
<path d="M1933 10159 c-90 -18 -125 -88 -45 -89 39 0 15 -17 -34 -25 -58 -8
-86 -35 -82 -78 l3 -32 55 3 55 2 -36 -19 c-109 -60 -79 -221 40 -221 94 0
138 87 91 180 -11 22 -20 43 -20 47 0 4 27 -19 60 -52 l59 -59 11 28 c18 48
11 82 -26 135 -32 48 -33 51 -10 36 40 -27 60 -13 53 37 -10 75 -92 125 -174
107z"/>
<path d="M4309 10090 c-34 -18 -46 -30 -106 -109 -14 -18 -48 -39 -90 -56
-100 -39 -113 -50 -113 -90 0 -51 31 -63 99 -40 58 19 71 15 71 -23 0 -87 42
-136 98 -116 27 9 27 11 32 119 5 94 10 119 34 168 29 60 41 157 21 163 -5 2
-26 -6 -46 -16z"/>
<path d="M4596 10057 c-8 -43 2 -97 23 -121 13 -15 15 -41 13 -157 l-3 -139
25 -11 c40 -19 72 1 87 53 7 24 17 49 22 56 12 15 61 16 105 0 32 -12 35 -11
59 16 40 47 29 65 -76 121 -87 47 -95 53 -116 100 -23 54 -84 115 -114 115
-13 0 -21 -10 -25 -33z"/>
<path d="M7335 10066 c-15 -22 -15 -27 -1 -54 20 -38 78 -82 110 -82 14 0 49
13 78 29 60 33 71 62 40 102 -20 23 -20 23 -69 8 -47 -15 -52 -15 -84 2 -45
24 -56 23 -74 -5z"/>
<path d="M4450 10029 c-16 -30 -26 -81 -37 -173 -20 -183 -25 -197 -71 -219
-56 -27 -136 -90 -140 -110 -2 -10 4 -29 13 -43 21 -32 50 -27 157 28 l77 39
90 -60 c50 -34 99 -61 110 -61 25 0 63 48 59 74 -3 18 -69 72 -167 136 l-23
16 12 144 c14 162 7 210 -34 249 l-25 23 -21 -43z"/>
<path d="M3591 9954 c-26 -18 -60 -87 -61 -121 0 -40 118 -60 158 -25 24 20
62 90 62 114 0 44 -110 66 -159 32z"/>
<path d="M7244 9915 c-8 -13 -14 -32 -12 -42 4 -22 148 -110 194 -119 25 -5
49 1 99 25 121 56 146 87 111 134 -18 23 -33 22 -100 -8 -73 -32 -104 -32
-176 5 -72 36 -95 37 -116 5z"/>
<path d="M5208 9859 c-25 -14 -22 -54 7 -118 l25 -54 71 5 c96 7 109 20 84 85
-28 73 -54 93 -117 93 -29 0 -61 -5 -70 -11z"/>
<path d="M7166 9795 c-23 -23 -20 -58 7 -82 29 -27 182 -126 228 -148 35 -17
36 -17 110 20 120 60 229 128 229 142 0 23 -31 63 -49 63 -9 0 -67 -27 -130
-60 l-114 -60 -116 65 c-143 79 -145 80 -165 60z"/>
<path d="M6331 9764 c-40 -50 -21 -118 40 -150 38 -19 60 -12 98 32 61 69 25
144 -70 144 -39 0 -51 -4 -68 -26z"/>
<path d="M4070 9744 c-101 -37 -121 -68 -191 -293 -29 -95 -34 -121 -22 -121
24 0 249 194 268 231 17 32 33 210 19 208 -5 0 -38 -12 -74 -25z"/>
<path d="M8431 9727 c-40 -19 -65 -72 -55 -110 19 -66 134 -88 170 -31 24 35
13 102 -21 131 -29 26 -58 29 -94 10z"/>
<path d="M4786 9695 c-23 -23 -31 -114 -13 -156 19 -46 120 -171 193 -239 57
-53 59 -54 62 -30 3 26 -40 258 -59 316 -13 41 -53 78 -112 103 -58 25 -52 24
-71 6z"/>
<path d="M6620 9680 c-11 -11 -20 -29 -20 -41 0 -12 -16 -37 -35 -56 -48 -48
-57 -67 -46 -96 15 -39 28 -41 86 -12 76 37 95 64 95 136 0 82 -36 113 -80 69z"/>
<path d="M6764 9655 c-7 -19 -14 -58 -14 -87 0 -67 -15 -89 -90 -129 -32 -17
-61 -38 -64 -46 -7 -17 20 -72 39 -79 18 -7 130 52 170 91 48 45 80 195 55
259 -8 21 -16 26 -45 26 -32 0 -38 -4 -51 -35z"/>
<path d="M6936 9648 c-3 -13 -7 -61 -11 -107 -9 -136 -28 -162 -170 -240 -42
-23 -79 -49 -82 -57 -10 -27 17 -74 43 -74 13 0 84 33 157 74 127 72 132 76
139 113 9 48 10 276 2 297 -4 10 -18 16 -40 16 -27 0 -35 -5 -38 -22z"/>
<path d="M7861 9637 c-6 -8 -16 -82 -23 -166 l-11 -152 29 -30 c16 -17 83 -64
149 -105 l120 -75 23 26 c43 51 33 65 -112 160 l-91 60 -5 135 c-3 74 -9 141
-13 148 -11 16 -52 15 -66 -1z"/>
<path d="M8010 9635 c-9 -10 -16 -51 -18 -104 -7 -136 12 -165 161 -246 55
-30 70 -35 82 -25 38 31 -7 128 -69 151 -40 14 -46 29 -46 119 0 86 -15 114
-61 118 -24 2 -40 -2 -49 -13z"/>
<path d="M8185 9630 c-26 -29 -24 -108 4 -153 11 -19 41 -45 65 -58 l45 -23
25 24 c35 32 33 50 -8 87 -19 17 -38 43 -41 59 -16 76 -54 104 -90 64z"/>
<path d="M7119 9593 c-16 -43 5 -186 36 -239 30 -51 172 -176 194 -172 13 3
16 20 15 98 -1 132 -13 167 -79 231 -54 53 -130 109 -147 109 -5 0 -13 -12
-19 -27z"/>
<path d="M7662 9564 c-141 -96 -177 -155 -189 -311 -5 -73 -4 -83 11 -83 35 0
200 120 221 161 23 44 63 289 48 289 -5 0 -46 -25 -91 -56z"/>
<path d="M4401 9444 c-29 -32 -51 -65 -51 -77 1 -34 62 -141 83 -145 25 -5 74
43 88 85 14 43 6 74 -36 141 l-33 52 -51 -56z"/>
<path d="M941 9278 c-71 -38 -84 -63 -89 -172 -5 -104 -11 -92 77 -149 19 -12
36 -28 39 -34 8 -27 -30 -23 -126 15 l-100 39 5 -56 c9 -88 21 -104 113 -142
140 -59 180 -111 53 -71 -52 17 -70 19 -81 10 -19 -16 -8 -65 21 -96 21 -24
150 -92 172 -92 26 0 174 80 193 105 23 30 30 99 11 110 -6 4 -37 -5 -70 -20
-34 -15 -63 -24 -66 -21 -10 10 30 47 99 93 37 24 74 53 83 65 16 23 21 123 7
132 -4 2 -49 -16 -100 -42 -70 -36 -94 -44 -103 -35 -9 9 1 25 45 70 l58 58
-6 64 c-7 81 -30 120 -91 153 -75 40 -94 42 -144 16z"/>
<path d="M6945 9165 c-38 -13 -95 -34 -125 -48 l-54 -24 89 -42 c141 -66 179
-76 240 -64 28 6 93 29 145 51 l94 41 -80 36 c-103 48 -181 75 -213 75 -14 0
-57 -11 -96 -25z"/>
<path d="M7636 9125 c-108 -44 -123 -52 -115 -59 10 -9 177 -90 212 -102 34
-12 48 -12 101 2 87 22 208 74 203 88 -1 6 -50 35 -107 63 -132 66 -151 67
-294 8z"/>
<path d="M6660 8995 c-7 -8 -10 -21 -7 -30 8 -19 113 -96 189 -137 58 -32 59
-34 54 -68 -4 -19 -9 -83 -13 -141 l-6 -106 27 -7 c35 -9 74 2 86 24 6 10 10
90 10 177 l0 158 -108 61 c-59 33 -120 66 -135 72 -38 16 -82 15 -97 -3z"/>
<path d="M7292 8945 c-46 -26 -151 -105 -169 -127 -10 -12 -53 -241 -53 -282
0 -12 19 -4 78 35 164 111 182 134 201 256 15 95 14 143 -1 143 -7 0 -32 -11
-56 -25z"/>
<path d="M7454 8933 c4 -21 11 -78 16 -126 6 -65 15 -97 31 -120 44 -64 197
-173 215 -154 9 8 -13 218 -25 250 -5 13 -21 38 -37 56 -36 43 -162 131 -187
131 -17 0 -19 -5 -13 -37z"/>
<path d="M8065 8954 c-22 -8 -86 -40 -141 -71 l-101 -56 -12 -112 c-21 -211
-13 -255 44 -255 37 0 47 31 59 178 l11 133 104 52 c60 30 113 64 124 79 20
27 20 28 2 48 -21 23 -35 24 -90 4z"/>
<path d="M6585 8860 c-9 -17 -13 -39 -10 -48 3 -9 34 -36 70 -59 71 -47 85
-74 85 -168 0 -27 4 -55 8 -61 12 -18 43 -24 64 -13 19 10 20 19 17 124 -4 96
-7 118 -25 142 -24 31 -150 112 -176 113 -10 0 -25 -14 -33 -30z"/>
<path d="M1829 8821 c-19 -11 -50 -33 -67 -49 -30 -28 -32 -35 -32 -95 0 -36
-4 -68 -9 -71 -23 -15 -60 74 -61 149 -1 64 -38 71 -100 18 l-32 -26 7 -129
c8 -143 -3 -168 -31 -70 -23 79 -28 84 -70 65 -18 -9 -37 -26 -41 -37 -10 -30
-5 -155 8 -194 12 -37 75 -89 155 -128 l53 -26 43 24 c59 32 59 49 -1 87 -27
18 -55 39 -63 48 -26 32 63 6 139 -42 40 -25 84 -45 97 -45 13 0 42 14 65 31
42 30 43 31 24 51 -10 11 -43 37 -73 58 -31 21 -62 45 -69 54 -20 24 12 32 68
16 25 -7 56 -13 68 -13 33 1 108 42 144 79 29 30 31 36 27 88 -5 59 -34 107
-90 149 -38 28 -114 32 -159 8z"/>
<path d="M8073 8781 l-103 -50 0 -125 c0 -100 3 -128 16 -140 39 -40 84 1 84
75 0 85 50 156 122 174 41 10 52 29 41 72 -12 54 -38 53 -160 -6z"/>
<path d="M125 8734 c-92 -48 -125 -97 -125 -186 0 -70 18 -94 96 -129 78 -35
109 -36 165 -4 51 29 69 31 69 9 0 -16 -40 -59 -108 -117 -41 -35 -40 -50 2
-76 62 -39 82 -32 245 85 66 47 68 28 6 -45 -43 -50 -45 -55 -30 -71 9 -10 30
-24 46 -30 26 -11 33 -10 67 12 70 47 140 118 152 154 7 20 10 67 8 106 -3 64
-7 73 -36 99 -18 16 -43 29 -56 29 -21 0 -24 -5 -30 -72 -3 -39 -9 -74 -11
-77 -16 -16 -29 33 -36 133 -4 64 -13 124 -18 135 -15 27 -98 58 -114 42 -6
-6 -15 -55 -18 -107 -3 -52 -9 -97 -13 -101 -13 -14 -29 18 -37 73 -9 67 -23
84 -97 117 -83 37 -94 38 -127 21z"/>
<path d="M6507 8732 c-24 -27 -21 -50 13 -89 17 -19 30 -45 30 -61 0 -55 10
-72 42 -72 43 0 65 15 78 56 19 55 -9 117 -68 155 -53 34 -73 36 -95 11z"/>
<path d="M8235 8673 c-66 -35 -105 -95 -105 -162 0 -45 8 -53 55 -54 42 -1 44
1 56 54 6 23 23 57 39 76 30 33 36 56 24 87 -8 20 -30 20 -69 -1z"/>
<path d="M7290 8550 c-58 -32 -125 -75 -149 -97 -36 -32 -43 -42 -36 -62 6
-21 12 -23 47 -18 23 3 87 28 143 55 l102 50 123 -74 c67 -41 128 -74 135 -74
6 0 17 17 23 37 11 35 10 38 -26 72 -31 30 -117 86 -237 156 -17 10 -35 4
-125 -45z"/>
<path d="M6320 8593 c-78 -29 -78 -128 1 -169 42 -21 68 -17 100 17 46 50 37
114 -21 144 -30 15 -53 18 -80 8z"/>
<path d="M1219 8537 c-96 -54 -129 -90 -129 -137 0 -28 22 -35 59 -16 45 24
55 20 76 -26 21 -44 46 -58 70 -38 19 16 29 106 20 185 -8 77 -14 80 -96 32z"/>
<path d="M783 8524 c-7 -19 4 -145 18 -196 7 -28 16 -39 34 -44 30 -8 55 10
55 40 0 39 14 48 65 45 37 -3 50 0 59 14 20 31 -12 68 -94 108 -95 47 -128 55
-137 33z"/>
<path d="M8366 8508 c-33 -51 -27 -114 12 -144 65 -50 183 36 147 107 -31 59
-130 82 -159 37z"/>
<path d="M3855 8398 c-26 -15 -35 -28 -35 -56 0 -14 -9 -27 -25 -34 -14 -6
-24 -16 -22 -22 4 -11 58 -51 80 -59 9 -3 7 -13 -6 -35 -20 -36 -25 -30 63
-75 57 -30 66 -57 17 -57 -23 0 -47 10 -72 30 -44 35 -39 34 -76 13 -28 -17
-31 -17 -63 1 -38 20 -56 15 -56 -15 0 -11 -14 -38 -31 -59 -35 -43 -33 -70 6
-88 19 -9 25 -19 25 -42 0 -25 4 -30 24 -30 13 0 40 11 60 25 45 30 43 30 42
3 -1 -33 29 -34 76 -3 50 33 103 39 103 12 0 -12 -20 -29 -60 -50 -58 -31 -60
-34 -65 -77 -4 -37 -9 -46 -28 -48 -40 -6 -52 -62 -17 -76 8 -3 24 -23 35 -46
26 -51 42 -58 76 -31 18 14 34 18 54 14 26 -5 30 -2 35 23 13 57 16 62 39 68
23 6 24 10 23 81 -2 57 2 78 15 91 15 15 17 15 28 -6 7 -12 10 -50 8 -87 -3
-64 -2 -67 26 -82 22 -12 32 -29 40 -61 7 -29 17 -46 29 -48 10 -2 17 3 17 12
0 20 11 20 36 1 24 -18 58 -19 73 -1 7 8 11 30 9 50 -1 19 0 37 2 38 3 2 14 8
24 14 31 17 30 34 -3 45 -21 7 -33 20 -38 37 -9 40 -26 60 -77 92 -30 19 -46
37 -46 50 0 30 39 26 86 -10 21 -16 51 -30 67 -30 23 0 27 4 27 26 l0 26 34
-26 c19 -14 43 -26 54 -26 22 0 47 25 38 38 -3 5 4 18 15 28 41 37 42 50 4
105 -19 28 -35 57 -35 65 0 17 -9 18 -50 0 -25 -10 -39 -11 -62 -2 -25 9 -35
7 -77 -17 -27 -15 -61 -27 -76 -27 -45 0 -26 32 40 67 33 17 61 35 62 40 2 5
-6 18 -17 28 -28 26 -25 33 20 46 22 7 47 20 56 30 15 17 15 19 -10 30 -18 8
-28 23 -32 46 -12 62 -67 77 -106 29 l-18 -21 0 23 c0 15 -6 22 -19 22 -20 0
-31 -18 -31 -51 0 -12 -14 -28 -35 -41 l-36 -20 7 -59 c7 -58 -7 -119 -27
-119 -19 0 -30 56 -24 121 l7 66 -31 11 c-22 8 -31 17 -31 32 0 30 -18 60 -35
60 -14 0 -19 -12 -16 -32 2 -14 -7 -9 -33 17 -28 28 -33 29 -61 13z"/>
<path d="M7285 8357 c-105 -55 -118 -70 -94 -113 16 -31 42 -30 113 1 76 34
102 32 182 -15 73 -43 82 -42 109 10 13 25 12 29 -13 52 -25 24 -180 118 -192
118 -3 -1 -50 -24 -105 -53z"/>
<path d="M1125 8309 c-16 -5 -64 -8 -105 -7 l-75 3 -3 -40 c-4 -69 -11 -84
-52 -111 -51 -34 -51 -58 0 -84 41 -21 45 -29 54 -108 2 -24 7 -46 10 -49 3
-3 29 4 57 16 62 25 95 26 149 5 23 -9 43 -14 46 -11 3 3 9 35 14 70 9 78 11
80 62 117 l39 29 -39 20 c-58 30 -92 74 -92 122 0 43 -8 46 -65 28z"/>
<path d="M1325 8237 l-29 -24 37 -24 c20 -13 39 -29 41 -36 3 -6 -8 -28 -25
-49 -37 -47 -37 -57 4 -79 29 -15 37 -16 58 -5 38 21 169 122 169 131 0 12
-161 98 -197 105 -23 4 -36 0 -58 -19z"/>
<path d="M730 8206 c-41 -14 -116 -64 -144 -95 -18 -20 -18 -22 -1 -41 22 -25
111 -69 161 -80 42 -10 84 2 84 24 0 8 -17 30 -37 49 l-37 35 32 36 c38 44 39
50 10 70 -26 19 -23 19 -68 2z"/>
<path d="M7307 8184 c-58 -30 -63 -41 -43 -88 17 -40 30 -43 81 -19 33 16 37
16 70 0 49 -23 60 -22 85 13 28 39 22 52 -37 90 -58 36 -93 37 -156 4z"/>
<path d="M1565 8044 c-102 -68 -125 -108 -125 -216 0 -102 13 -144 50 -156 35
-13 40 -7 66 66 23 66 32 50 33 -60 1 -42 6 -88 13 -102 9 -22 115 -94 122
-84 2 2 8 48 14 102 6 54 15 103 20 108 9 9 32 -40 32 -69 0 -30 43 -74 111
-114 38 -23 76 -39 84 -35 33 12 122 87 133 111 7 14 12 56 12 94 0 80 -12 95
-103 135 -72 32 -94 32 -148 1 -45 -25 -79 -32 -79 -16 0 11 47 60 108 113 23
20 42 41 42 47 0 15 -71 61 -95 61 -23 0 -58 -20 -145 -84 -98 -72 -122 -59
-44 24 26 28 43 54 39 61 -8 12 -67 39 -87 39 -8 0 -31 -12 -53 -26z"/>
<path d="M482 7977 c-28 -30 -23 -46 35 -93 28 -23 41 -40 35 -46 -11 -11 -56
8 -152 63 -43 24 -63 30 -92 26 -42 -6 -101 -43 -95 -61 2 -6 26 -25 53 -43
80 -52 134 -93 134 -103 0 -16 -45 -11 -95 10 -64 27 -85 25 -141 -13 -74 -51
-86 -73 -86 -155 -1 -88 15 -115 85 -148 74 -34 104 -31 175 16 67 45 87 80
78 137 -8 48 6 73 31 57 11 -7 19 -26 21 -50 5 -78 23 -144 38 -144 22 0 66
25 88 49 17 19 18 31 12 146 -5 83 -4 125 3 125 15 0 24 -20 37 -80 6 -33 16
-56 25 -58 8 -1 30 11 49 27 35 29 35 30 33 101 -3 102 -30 152 -111 209 -79
54 -127 63 -160 28z"/>
<path d="M7317 7946 c-33 -30 -43 -68 -27 -105 14 -34 47 -51 99 -51 42 0 65
19 76 62 9 34 -11 95 -35 108 -34 18 -85 12 -113 -14z"/>
<path d="M1255 7912 c-20 -37 -21 -37 -79 -35 -57 2 -58 2 -52 -22 17 -69 24
-75 122 -121 53 -24 99 -42 103 -38 3 3 6 55 6 116 0 97 -2 111 -19 124 -34
24 -59 17 -81 -24z"/>
<path d="M857 7913 c-37 -41 -50 -213 -17 -233 29 -18 118 27 169 86 22 24 31
45 31 69 0 41 -3 41 -61 16 -24 -11 -47 -17 -51 -15 -4 3 -8 20 -8 38 0 52
-32 72 -63 39z"/>
<path d="M996 7658 c-86 -46 -113 -83 -101 -139 8 -36 18 -36 96 1 34 16 66
27 71 24 15 -9 -20 -41 -108 -99 -46 -30 -89 -65 -95 -77 -13 -24 -18 -113 -6
-124 3 -3 42 12 87 35 51 26 91 41 108 39 l27 -3 -41 -45 c-58 -63 -64 -79
-64 -160 0 -68 2 -74 33 -104 17 -18 54 -41 80 -51 63 -24 109 -10 171 50 42
40 46 48 46 92 0 95 -18 130 -99 191 -17 13 -31 30 -31 39 0 21 40 12 141 -31
l79 -34 0 57 c0 36 -6 65 -16 80 -9 13 -58 43 -108 66 -102 48 -135 70 -123
81 7 7 32 2 113 -24 42 -13 56 -2 56 43 0 26 -7 44 -23 60 -29 27 -149 75
-187 75 -15 0 -62 -19 -106 -42z"/>
<path d="M5803 7650 c-37 -22 -63 -67 -63 -108 0 -17 14 -51 33 -80 l34 -50
-55 26 c-40 18 -59 22 -71 15 -40 -25 -16 -77 57 -124 l46 -29 -32 0 c-66 0
-46 -62 31 -99 54 -26 77 -26 127 -1 42 21 70 54 70 82 0 14 -8 18 -37 18
l-38 0 35 21 c58 35 90 70 90 100 0 41 -31 46 -91 16 -27 -13 -49 -23 -49 -21
0 2 14 23 31 48 24 33 32 55 32 87 0 37 -6 48 -41 81 -47 43 -64 46 -109 18z"/>
<path d="M5234 7322 c-51 -41 -59 -113 -18 -161 30 -36 81 -49 137 -34 l39 11
-51 -45 c-55 -48 -62 -66 -30 -83 26 -15 73 -5 128 27 24 14 42 21 39 17 -2
-5 -10 -22 -18 -38 -13 -25 -12 -29 3 -41 22 -16 50 -9 99 22 50 31 69 62 70
117 1 91 -47 142 -74 79 l-12 -28 -3 30 c-12 112 -12 113 -48 125 -19 6 -39 9
-44 6 -5 -4 -13 -32 -17 -64 -7 -50 -8 -53 -14 -27 -10 47 -28 73 -60 90 -39
20 -100 19 -126 -3z"/>
<path d="M6330 7325 c-26 -14 -41 -36 -58 -90 -10 -29 -10 -28 -11 16 -1 25
-7 53 -14 63 -12 17 -17 17 -50 5 -35 -12 -36 -14 -43 -77 -6 -64 -7 -65 -21
-39 -16 32 -24 33 -48 7 -22 -24 -31 -113 -16 -152 15 -39 74 -80 126 -86 41
-4 45 -3 45 17 0 12 -8 34 -17 48 l-18 27 45 -26 c58 -34 109 -44 134 -25 27
20 14 48 -39 86 -25 18 -45 34 -45 35 0 2 17 -1 38 -7 90 -24 162 25 162 110
0 63 -40 103 -102 103 -24 -1 -54 -7 -68 -15z"/>
<path d="M5685 7156 c-9 -14 -19 -43 -22 -64 -4 -32 -1 -44 16 -61 28 -28 43
-23 53 18 9 32 10 32 53 25 41 -6 45 -4 45 14 0 24 -20 47 -58 66 -56 28 -70
29 -87 2z"/>
<path d="M5925 7158 c-36 -20 -65 -51 -65 -70 0 -16 7 -19 48 -16 45 3 47 2
50 -24 7 -62 72 -10 72 57 0 44 -17 65 -53 65 -18 0 -41 -6 -52 -12z"/>
<path d="M5778 7019 c-10 -5 -18 -17 -18 -24 0 -8 -16 -32 -35 -53 l-34 -39
29 -22 c16 -12 32 -32 36 -46 4 -15 17 -28 36 -34 66 -23 125 -6 152 44 11 19
34 46 51 59 l32 25 -5 -50 c-4 -42 -2 -49 13 -49 21 0 145 67 145 78 0 13
-108 72 -132 72 -12 -1 -34 -7 -48 -15 -36 -21 -49 -18 -56 10 -3 14 -16 32
-27 40 -24 17 -113 20 -139 4z"/>
<path d="M5571 6948 c-33 -17 -61 -34 -61 -37 0 -13 111 -72 138 -74 26 -2 27
0 27 44 0 25 6 54 14 63 13 15 13 19 0 27 -25 15 -55 10 -118 -23z"/>
<path d="M5468 6852 c-22 -4 -23 -30 -2 -60 19 -28 17 -28 -39 4 -60 33 -130
31 -135 -3 -2 -16 9 -31 47 -59 28 -21 49 -39 48 -41 -2 -1 -20 2 -41 8 -116
32 -203 -97 -125 -186 41 -46 67 -52 118 -26 45 24 70 55 80 104 7 28 8 25 15
-32 l7 -63 36 5 c20 4 40 10 45 15 5 5 12 40 16 78 l7 69 14 -32 c7 -18 20
-33 27 -33 39 0 61 106 34 169 -19 46 -106 94 -152 83z"/>
<path d="M6164 6844 c-21 -7 -54 -29 -71 -48 -28 -30 -33 -43 -33 -85 0 -86
37 -134 71 -92 16 19 17 17 25 -42 9 -61 9 -62 47 -71 47 -12 56 -1 58 69 l1
50 10 -35 c15 -52 42 -84 88 -105 40 -18 43 -18 76 0 62 33 82 88 55 150 -25
56 -81 82 -143 67 -23 -6 -43 -10 -45 -9 -1 2 19 18 45 38 34 25 47 41 47 59
0 22 -5 25 -43 28 -32 2 -55 -4 -89 -22 -56 -32 -58 -32 -39 -4 36 51 8 75
-60 52z"/>
<path d="M5680 6785 c-23 -27 -24 -97 -3 -124 l19 -24 49 22 c60 26 85 48 85
73 0 15 -8 18 -45 18 -39 0 -45 3 -51 25 -7 28 -35 33 -54 10z"/>
<path d="M5960 6775 c-8 -22 -16 -25 -55 -25 -42 0 -46 -2 -43 -22 3 -24 56
-65 96 -75 36 -9 56 8 66 55 7 33 5 47 -8 67 -21 32 -44 32 -56 0z"/>
<path d="M5800 6634 c-67 -29 -113 -93 -77 -107 7 -3 26 -3 43 0 25 5 20 -1
-33 -40 -37 -28 -65 -57 -69 -71 -12 -50 16 -58 90 -26 46 19 60 14 30 -11
-49 -40 -60 -144 -20 -184 58 -58 158 -36 185 40 13 37 12 44 -7 85 -12 25
-29 55 -38 68 l-17 22 44 -20 c77 -34 109 -22 95 35 -6 22 -23 37 -102 93 -18
12 -17 13 4 8 87 -17 54 69 -40 108 -45 19 -44 19 -88 0z"/>
<path d="M2653 6620 c-21 -13 -36 -32 -44 -58 -10 -34 -9 -45 10 -83 11 -24
28 -54 37 -67 l17 -22 -44 20 c-77 34 -109 22 -95 -35 6 -22 23 -37 102 -93
18 -12 17 -13 -4 -8 -87 17 -54 -69 41 -109 47 -20 91 -8 143 37 53 47 43 82
-22 71 -25 -5 -20 1 33 40 37 28 65 57 69 71 12 50 -16 58 -90 26 -46 -19 -60
-14 -30 11 40 33 58 124 33 171 -12 22 -66 48 -101 48 -13 0 -37 -9 -55 -20z"/>
<path d="M2117 6311 c-58 -38 -74 -87 -48 -146 25 -56 81 -82 143 -67 23 6 43
10 45 9 1 -2 -19 -18 -45 -38 -34 -25 -47 -41 -47 -59 0 -22 5 -25 43 -28 32
-2 55 4 89 22 56 32 58 32 39 4 -56 -79 59 -82 132 -4 27 30 32 43 32 85 0 86
-37 134 -71 92 -16 -19 -17 -17 -25 42 -9 61 -9 62 -47 71 -47 12 -56 1 -58
-69 -1 -49 -1 -50 -11 -16 -14 51 -37 80 -79 102 -47 24 -57 24 -92 0z"/>
<path d="M3218 6309 c-43 -22 -67 -55 -77 -102 -7 -28 -8 -25 -15 32 l-7 63
-36 -5 c-20 -4 -40 -10 -45 -15 -5 -5 -12 -40 -16 -78 l-7 -69 -14 33 c-7 17
-20 32 -27 32 -39 0 -61 -106 -34 -170 19 -46 92 -85 153 -81 21 1 22 29 1 59
-19 28 -17 28 39 -4 60 -33 130 -31 135 3 2 16 -9 31 -47 59 -28 21 -49 39
-48 41 2 1 20 -2 41 -8 77 -21 156 35 156 113 0 34 -7 47 -39 79 -44 44 -60
47 -113 18z"/>
<path d="M2810 6139 c-56 -25 -80 -47 -80 -71 0 -15 8 -18 45 -18 39 0 45 -3
51 -25 7 -28 35 -33 54 -10 21 25 24 92 6 120 -20 30 -19 30 -76 4z"/>
<path d="M2552 6138 c-6 -7 -13 -30 -17 -51 -13 -66 43 -119 65 -62 8 22 16
25 55 25 37 0 45 3 45 18 0 22 -22 43 -67 66 -38 19 -67 21 -81 4z"/>
<path d="M2660 5999 c-14 -5 -34 -25 -44 -44 -11 -19 -34 -46 -51 -59 l-32
-25 5 50 c4 42 2 49 -13 49 -21 0 -145 -67 -145 -78 0 -13 108 -72 132 -72 12
1 34 7 48 15 36 21 49 18 56 -10 9 -37 42 -55 97 -55 54 0 87 13 87 35 0 8 16
32 35 53 l34 39 -29 22 c-16 12 -32 32 -36 46 -10 38 -84 56 -144 34z"/>
<path d="M2885 5961 c-3 -7 -4 -25 0 -42 5 -20 1 -38 -10 -56 -19 -29 -9 -43
31 -43 22 0 144 59 144 69 0 10 -103 69 -132 76 -15 4 -29 2 -33 -4z"/>
<path d="M7373 5845 c-17 -7 -50 -32 -72 -54 -37 -37 -41 -46 -41 -88 0 -95
18 -130 99 -191 17 -13 31 -30 31 -39 0 -21 -40 -12 -141 31 l-79 34 0 -57 c0
-36 6 -65 16 -80 9 -13 58 -43 108 -66 102 -48 135 -70 123 -81 -7 -7 -32 -2
-113 24 -42 13 -56 2 -56 -43 0 -26 7 -44 24 -60 27 -26 147 -75 184 -75 14 0
62 19 106 42 88 46 115 82 103 139 -8 36 -18 36 -96 -1 -34 -16 -66 -27 -71
-24 -15 9 20 41 108 99 46 30 89 65 95 77 13 24 18 113 6 124 -3 3 -42 -12
-87 -35 -51 -26 -91 -41 -108 -39 l-27 3 41 45 c57 63 64 79 64 158 0 84 -18
113 -94 148 -58 27 -78 29 -123 9z"/>
<path d="M3056 5832 c-31 -7 -94 -50 -111 -76 -19 -29 -22 -105 -5 -146 16
-38 46 -40 62 -2 l12 27 3 -30 c12 -112 12 -113 48 -125 19 -6 39 -9 44 -6 5
4 13 32 17 64 7 50 8 53 14 27 15 -70 57 -105 127 -105 90 1 136 109 77 179
-30 36 -81 49 -137 34 l-39 -11 51 45 c55 48 62 66 30 83 -26 14 -73 5 -126
-26 -45 -26 -53 -23 -28 10 8 11 15 26 15 33 0 16 -30 31 -54 25z"/>
<path d="M2320 5811 c0 -12 8 -34 17 -48 l18 -27 -45 26 c-58 34 -109 44 -134
25 -27 -20 -14 -48 39 -86 25 -18 45 -34 45 -35 0 -2 -17 1 -38 7 -90 24 -162
-25 -162 -110 0 -62 40 -103 100 -103 72 0 102 25 128 105 10 29 10 28 11 -16
1 -25 7 -53 14 -63 12 -17 17 -17 50 -5 35 12 36 14 43 77 6 64 7 65 21 39 16
-32 24 -33 48 -7 22 24 31 113 16 152 -15 39 -74 80 -126 86 -41 4 -45 3 -45
-17z"/>
<path d="M2837 5783 c-2 -5 -7 -21 -11 -36 -6 -27 -8 -28 -51 -21 -41 6 -45 4
-45 -14 0 -11 8 -28 17 -38 24 -24 101 -56 114 -48 16 9 39 69 39 99 0 36 -49
82 -63 58z"/>
<path d="M2545 5750 c-31 -60 -13 -120 36 -120 51 0 119 47 119 82 0 16 -7 19
-47 16 -46 -3 -48 -2 -51 25 -5 37 -37 36 -57 -3z"/>
<path d="M2648 5600 c-41 -22 -68 -55 -68 -82 0 -14 8 -18 38 -18 l37 0 -35
-21 c-58 -35 -90 -70 -90 -100 0 -41 31 -46 91 -16 27 13 49 23 49 21 0 -2
-14 -23 -31 -48 -45 -63 -44 -115 2 -162 19 -19 43 -37 55 -40 31 -8 81 21
104 59 29 47 25 87 -13 145 l-34 50 55 -26 c40 -18 59 -22 71 -15 40 25 16 77
-57 124 l-46 29 32 0 c66 0 46 62 -31 99 -53 26 -81 26 -129 1z"/>
<path d="M8222 5370 c-67 -45 -87 -80 -78 -137 8 -48 -6 -73 -31 -57 -11 7
-19 26 -21 50 -5 78 -23 144 -38 144 -22 0 -66 -25 -88 -49 -17 -19 -18 -31
-12 -146 5 -83 4 -125 -3 -125 -15 0 -24 20 -37 80 -6 33 -16 56 -25 58 -8 1
-30 -11 -49 -27 -35 -29 -35 -30 -33 -101 3 -102 30 -152 111 -209 79 -54 127
-63 160 -28 28 30 23 46 -35 93 -28 23 -41 40 -35 46 11 11 56 -8 152 -63 43
-24 63 -30 92 -26 42 6 101 43 95 61 -2 6 -26 25 -53 43 -80 52 -134 93 -134
103 0 16 45 11 95 -10 64 -27 85 -25 141 13 74 51 86 73 86 155 1 88 -15 115
-85 148 -74 34 -104 31 -175 -16z"/>
<path d="M6519 5280 c-76 -56 -89 -80 -89 -166 0 -83 11 -98 103 -138 72 -32
94 -32 148 -1 45 25 79 32 79 16 0 -11 -47 -60 -108 -113 -23 -20 -42 -41 -42
-47 0 -15 71 -61 95 -61 23 0 58 20 145 84 98 72 122 59 44 -24 -53 -57 -50
-71 17 -91 35 -11 41 -10 86 19 100 64 123 105 123 215 0 101 -13 143 -50 155
-35 13 -40 7 -66 -66 -23 -66 -32 -50 -33 60 -1 42 -6 88 -13 102 -9 22 -115
94 -122 84 -2 -2 -8 -48 -14 -102 -6 -54 -15 -103 -20 -108 -9 -9 -32 40 -32
69 0 29 -43 74 -109 113 -37 22 -72 40 -77 40 -6 0 -35 -18 -65 -40z"/>
<path d="M4652 5220 c-16 -13 -32 -18 -52 -14 -29 6 -30 5 -44 -57 -4 -17 -14
-29 -30 -33 -23 -6 -24 -9 -23 -81 2 -57 -2 -78 -15 -91 -15 -15 -17 -15 -28
6 -7 12 -10 50 -8 87 3 64 2 67 -26 82 -22 12 -32 29 -40 61 -7 29 -17 46 -28
48 -11 2 -18 -3 -18 -12 0 -20 -11 -20 -36 -1 -24 18 -58 19 -73 1 -7 -8 -11
-30 -9 -50 1 -19 0 -37 -2 -38 -3 -2 -14 -8 -24 -14 -31 -17 -30 -34 3 -45 21
-7 33 -20 38 -37 9 -40 26 -60 77 -92 30 -19 46 -37 46 -50 0 -30 -39 -26 -86
10 -21 16 -51 30 -66 30 -24 0 -28 -4 -28 -26 l0 -26 -34 26 c-19 14 -43 26
-54 26 -22 0 -47 -25 -38 -38 3 -5 -4 -18 -15 -28 -41 -37 -42 -50 -4 -105 19
-28 35 -57 35 -65 0 -17 9 -18 50 0 25 10 39 11 62 2 25 -9 35 -7 77 17 27 15
61 27 76 27 45 0 26 -32 -40 -67 -33 -17 -61 -35 -62 -40 -2 -5 6 -18 17 -28
28 -26 25 -33 -20 -46 -22 -7 -47 -20 -56 -30 -15 -17 -15 -19 10 -30 18 -8
28 -23 32 -46 12 -62 67 -77 106 -29 l18 21 0 -22 c0 -16 6 -23 19 -23 20 0
31 18 31 51 0 12 14 28 35 41 l36 20 -7 59 c-7 58 7 119 27 119 19 0 30 -56
24 -121 l-7 -66 31 -11 c22 -8 31 -17 31 -32 0 -30 18 -60 35 -60 14 0 19 12
16 33 0 4 4 7 9 7 6 0 10 -4 10 -10 0 -5 11 -17 24 -25 20 -14 29 -14 48 -4
29 15 38 28 38 57 0 14 9 27 25 34 14 6 24 16 22 22 -4 11 -58 51 -80 59 -9 3
-7 13 6 35 20 36 25 30 -63 75 -57 30 -66 57 -17 57 23 0 47 -10 72 -30 44
-35 39 -34 76 -13 28 17 31 17 63 -1 38 -20 56 -15 56 15 0 11 14 38 31 59 35
43 33 70 -6 88 -19 9 -25 19 -25 42 0 25 -4 30 -24 30 -13 0 -40 -11 -60 -25
-45 -30 -43 -30 -42 -3 1 33 -29 34 -76 3 -50 -33 -103 -39 -103 -12 0 12 20
29 60 50 58 31 60 34 65 77 4 35 9 46 25 48 19 3 45 28 45 42 0 4 -12 20 -27
37 -16 16 -36 44 -45 61 -20 37 -34 39 -66 12z"/>
<path d="M7678 5119 c-78 -21 -158 -100 -158 -154 0 -39 8 -42 48 -21 54 28
67 25 72 -18 6 -49 31 -67 58 -42 44 39 58 224 19 239 -7 2 -24 1 -39 -4z"/>
<path d="M7204 5075 c-3 -19 -4 -71 -2 -116 3 -66 7 -83 23 -95 33 -24 58 -17
80 24 20 37 21 37 79 35 57 -2 58 -2 52 22 -17 68 -24 75 -122 121 -52 24 -97
44 -99 44 -2 0 -7 -16 -11 -35z"/>
<path d="M1117 4993 c-36 -40 -28 -131 13 -153 54 -29 131 5 146 64 9 35 -12
81 -42 95 -38 17 -98 14 -117 -6z"/>
<path d="M7545 4870 c-50 -23 -93 -24 -145 -4 -23 9 -43 14 -46 11 -3 -3 -9
-35 -14 -70 -9 -78 -11 -80 -62 -117 l-39 -29 39 -20 c59 -30 92 -74 92 -123
l0 -40 33 8 c17 4 73 8 122 9 l90 1 3 40 c4 68 11 83 52 110 51 34 51 58 1 83
-42 22 -51 36 -51 84 0 45 -10 77 -24 76 -6 0 -29 -9 -51 -19z"/>
<path d="M7753 4809 c-33 -12 -28 -33 14 -72 l37 -35 -32 -36 c-38 -44 -39
-51 -9 -71 18 -11 31 -12 56 -5 40 11 119 61 151 95 23 24 23 25 5 45 -22 24
-127 75 -170 83 -16 3 -40 1 -52 -4z"/>
<path d="M7126 4765 c-72 -49 -146 -108 -146 -116 0 -12 161 -98 197 -105 23
-4 36 0 58 19 l29 24 -37 24 c-20 13 -39 29 -41 36 -3 6 8 28 25 49 36 46 36
55 0 77 -38 22 -41 22 -85 -8z"/>
<path d="M1060 4710 c-12 -17 -19 -37 -16 -45 8 -23 98 -75 129 -75 32 0 126
45 133 64 8 21 -23 86 -40 86 -8 0 -31 -8 -51 -17 -33 -16 -37 -16 -70 0 -49
23 -60 22 -85 -13z"/>
<path d="M7972 4595 c-118 -88 -139 -128 -130 -247 4 -53 9 -65 36 -89 18 -16
43 -29 56 -29 21 0 24 5 30 72 3 39 9 74 11 77 16 16 29 -33 36 -133 4 -64 13
-124 18 -135 15 -27 98 -58 114 -42 6 6 15 55 18 107 3 52 9 97 13 101 13 14
29 -18 37 -73 9 -68 23 -84 102 -120 80 -36 105 -35 163 7 61 43 84 87 84 159
0 72 -17 95 -96 131 -78 35 -109 36 -165 4 -51 -29 -69 -31 -69 -9 0 16 40 59
108 117 41 35 40 50 -2 76 -62 39 -82 32 -245 -85 -66 -47 -68 -28 -6 45 50
58 49 68 -6 97 -39 20 -40 19 -107 -31z"/>
<path d="M987 4592 c-36 -42 -38 -58 -9 -84 15 -14 64 -47 109 -73 l81 -47
104 54 c108 56 121 70 97 114 -16 31 -42 30 -113 -1 -70 -31 -106 -31 -154 -2
-20 13 -51 31 -68 40 -29 15 -33 15 -47 -1z"/>
<path d="M6905 4547 c-56 -32 -55 -48 4 -86 27 -18 55 -39 63 -48 26 -32 -63
-6 -139 42 -40 25 -84 45 -97 45 -13 0 -42 -14 -65 -31 -42 -30 -43 -31 -24
-51 10 -11 43 -37 73 -58 31 -21 62 -45 69 -54 20 -24 -12 -32 -68 -16 -25 7
-56 13 -68 13 -33 -1 -108 -42 -144 -79 -50 -52 -42 -126 23 -199 75 -86 172
-85 266 3 30 28 32 35 32 95 0 36 4 68 9 71 23 15 60 -74 61 -149 1 -64 38
-71 100 -18 l32 26 -7 129 c-8 143 3 168 31 71 23 -80 28 -85 70 -66 41 20 48
39 46 128 -3 119 -24 150 -142 217 -67 38 -81 40 -125 15z"/>
<path d="M7682 4508 c-7 -7 -12 -21 -12 -32 0 -39 -15 -48 -65 -45 -60 5 -79
-15 -55 -59 17 -30 145 -99 195 -104 l30 -3 0 65 c-1 88 -13 157 -31 175 -18
18 -46 19 -62 3z"/>
<path d="M7262 4478 c-30 -36 -26 -248 5 -248 20 0 121 55 154 84 32 28 49 57
49 86 0 28 -22 35 -59 16 -45 -24 -55 -20 -76 27 -21 44 -52 59 -73 35z"/>
<path d="M882 4433 c-11 -35 -10 -38 26 -72 21 -20 86 -66 146 -102 l108 -66
105 56 c133 71 199 127 188 160 -6 21 -12 23 -47 18 -23 -3 -87 -28 -143 -55
l-102 -50 -123 74 c-67 41 -128 74 -135 74 -6 0 -17 -17 -23 -37z"/>
<path d="M77 4434 c-40 -22 -59 -70 -42 -105 21 -40 60 -61 108 -57 37 3 44 7
60 40 46 93 -36 171 -126 122z"/>
<path d="M2139 4359 c-47 -50 -37 -114 23 -145 37 -19 83 -12 115 18 42 39 22
112 -38 144 -42 21 -68 17 -100 -17z"/>
<path d="M348 4343 c-10 -3 -21 -17 -24 -31 -12 -57 -18 -68 -45 -100 -29 -33
-36 -65 -20 -91 20 -31 113 21 148 84 22 39 32 119 16 128 -16 8 -58 14 -75
10z"/>
<path d="M510 4330 c-15 -15 -20 -33 -20 -71 0 -85 -50 -156 -122 -174 -41
-10 -52 -29 -41 -72 12 -54 35 -53 158 6 l105 50 0 125 c0 100 -3 128 -16 140
-21 21 -40 20 -64 -4z"/>
<path d="M669 4318 c-7 -12 -17 -82 -23 -156 l-11 -133 -104 -52 c-61 -31
-113 -63 -125 -80 l-20 -27 22 -22 c21 -21 23 -22 73 -6 28 9 97 42 154 74
l102 57 12 112 c16 156 14 220 -5 239 -23 23 -61 20 -75 -6z"/>
<path d="M1600 4293 c-36 -13 -40 -34 -40 -197 l0 -161 108 -61 c59 -34 121
-67 138 -73 41 -16 84 -11 98 12 9 16 4 25 -34 57 -24 22 -82 61 -128 87 -83
48 -83 48 -77 83 3 19 8 83 12 141 6 106 6 106 -18 112 -27 8 -38 8 -59 0z"/>
<path d="M1756 4287 c-16 -12 -18 -26 -15 -125 4 -93 8 -115 25 -139 24 -31
150 -112 176 -113 21 0 51 54 43 78 -3 9 -34 36 -70 59 -71 47 -85 74 -85 168
0 28 -4 55 -8 61 -12 19 -47 25 -66 11z"/>
<path d="M1918 4280 c-9 -6 -22 -26 -28 -46 -19 -55 9 -117 68 -155 53 -34 73
-36 95 -11 24 27 21 50 -13 89 -17 19 -30 45 -30 61 0 56 -10 72 -44 72 -17 0
-39 -5 -48 -10z"/>
<path d="M1410 4226 c-119 -80 -150 -107 -170 -145 -30 -60 -53 -251 -30 -251
28 0 182 102 222 147 15 17 64 271 56 292 -1 4 -37 -15 -78 -43z"/>
<path d="M845 4188 c11 -130 23 -180 54 -218 36 -45 167 -140 193 -140 18 0
20 4 14 38 -4 20 -11 77 -16 125 -6 65 -15 97 -31 120 -25 37 -115 114 -162
139 -58 31 -60 27 -52 -64z"/>
<path d="M7444 4231 c-45 -21 -90 -51 -102 -66 -23 -30 -30 -99 -11 -110 6 -4
37 5 70 20 34 15 63 24 66 21 10 -10 -30 -47 -99 -93 -37 -24 -74 -53 -83 -65
-16 -23 -21 -123 -7 -132 4 -2 49 16 100 42 70 36 94 44 103 35 9 -9 -1 -25
-45 -70 l-58 -58 6 -64 c8 -89 28 -119 108 -160 75 -37 99 -35 164 14 40 31
54 74 54 172 0 78 4 72 -79 126 -19 12 -36 28 -39 34 -8 27 30 23 126 -15
l100 -39 -5 56 c-9 88 -21 104 -113 142 -140 59 -180 111 -53 71 52 -17 70
-19 81 -10 19 16 8 65 -21 96 -21 24 -150 92 -172 92 -6 0 -47 -17 -91 -39z"/>
<path d="M700 3827 c-102 -32 -181 -68 -177 -81 1 -6 50 -35 107 -64 93 -47
111 -52 155 -49 48 4 255 82 255 96 0 9 -207 109 -240 115 -14 3 -59 -5 -100
-17z"/>
<path d="M1420 3801 c-30 -10 -86 -33 -124 -49 l-70 -30 86 -40 c128 -59 183
-75 231 -68 55 9 250 87 240 96 -4 4 -55 28 -111 54 -123 56 -175 64 -252 37z"/>
<path d="M411 3664 c-41 -52 -32 -64 113 -159 l91 -60 5 -135 c3 -74 9 -141
13 -147 11 -17 52 -16 66 0 6 8 16 82 23 166 l11 152 -29 30 c-16 17 -74 59
-129 93 -149 94 -140 90 -164 60z"/>
<path d="M1015 3602 c-115 -76 -147 -104 -165 -145 -18 -43 -55 -265 -45 -275
9 -10 174 108 210 150 44 52 64 111 72 215 6 77 5 83 -13 82 -10 0 -37 -13
-59 -27z"/>
<path d="M1685 3555 c-125 -71 -130 -75 -137 -112 -9 -48 -10 -276 -2 -297 4
-10 18 -16 40 -16 39 0 40 2 49 129 9 136 28 162 170 240 42 23 79 49 82 57 3
8 0 28 -7 44 -19 45 -48 38 -195 -45z"/>
<path d="M1193 3604 c-8 -21 4 -180 17 -225 6 -23 32 -57 65 -90 54 -53 130
-109 147 -109 39 0 27 192 -17 266 -27 46 -168 174 -192 174 -7 0 -16 -7 -20
-16z"/>
<path d="M4072 3546 c-54 -62 -53 -107 6 -199 l30 -47 51 56 c29 32 51 65 51
77 0 12 -15 49 -33 82 -40 74 -61 80 -105 31z"/>
<path d="M322 3538 c-34 -34 12 -127 72 -149 40 -14 46 -29 46 -119 0 -86 15
-114 61 -118 51 -4 62 15 67 112 7 138 -8 164 -143 241 -89 50 -86 50 -103 33z"/>
<path d="M3530 3525 c0 -29 46 -264 61 -311 5 -17 22 -42 37 -57 33 -31 117
-68 137 -61 19 8 30 45 30 110 0 44 -6 60 -40 110 -44 64 -178 209 -206 225
-16 8 -19 6 -19 -16z"/>
<path d="M1846 3457 c-96 -52 -121 -81 -140 -164 -18 -83 -20 -121 -6 -157 8
-21 16 -26 45 -26 32 0 38 4 51 35 7 19 14 58 14 87 0 67 15 89 90 129 32 17
61 38 65 46 7 19 -26 77 -46 80 -7 2 -41 -12 -73 -30z"/>
<path d="M4635 3423 c-106 -82 -186 -156 -201 -184 -13 -25 -33 -209 -23 -209
2 0 36 11 74 25 107 38 125 66 196 294 30 97 34 121 22 121 -5 0 -35 -21 -68
-47z"/>
<path d="M232 3377 c-30 -32 -28 -48 12 -84 19 -17 38 -43 41 -59 16 -76 54
-104 90 -64 26 29 24 108 -3 152 -19 31 -85 78 -109 78 -5 0 -19 -10 -31 -23z"/>
<path d="M3870 3343 c-11 -15 -20 -36 -18 -47 3 -18 69 -72 167 -136 l23 -16
-12 -144 c-14 -162 -7 -210 34 -249 l25 -23 21 43 c16 30 26 81 37 173 20 183
25 197 71 219 56 27 136 90 140 110 2 10 -4 29 -13 43 -21 32 -50 27 -157 -28
l-77 -39 -90 60 c-50 34 -99 61 -110 61 -11 0 -29 -12 -41 -27z"/>
<path d="M1952 3324 c-73 -36 -92 -64 -92 -135 0 -56 15 -89 41 -89 26 0 49
24 59 59 6 22 23 50 39 64 44 36 54 62 39 94 -18 36 -26 37 -86 7z"/>
<path d="M43 3240 c-52 -21 -57 -116 -7 -159 67 -57 177 27 145 112 -17 44
-87 67 -138 47z"/>
<path d="M1012 3195 c-136 -71 -192 -107 -192 -123 0 -22 32 -62 49 -62 9 0
67 27 130 60 l114 60 116 -65 c144 -80 145 -80 165 -59 29 28 16 65 -38 105
-60 46 -216 139 -230 139 -6 0 -57 -25 -114 -55z"/>
<path d="M2099 3161 c-48 -48 -52 -90 -13 -126 39 -36 114 -36 143 1 39 50 21
118 -39 149 -41 21 -48 20 -91 -24z"/>
<path d="M3841 3161 c-10 -10 -22 -34 -26 -52 -4 -19 -12 -40 -17 -46 -13 -16
-62 -17 -106 -1 -32 12 -35 11 -59 -16 -40 -47 -29 -65 76 -121 87 -47 95 -53
116 -100 23 -54 84 -115 114 -115 36 0 37 113 2 154 -13 15 -15 41 -13 156 3
130 2 139 -17 149 -29 16 -48 14 -70 -8z"/>
<path d="M3460 3130 c-6 -12 -17 -59 -25 -106 -8 -47 -20 -96 -28 -107 -8 -12
-50 -40 -93 -62 -66 -34 -80 -44 -82 -67 -2 -15 2 -37 8 -49 10 -18 18 -20 51
-15 21 3 75 22 119 42 l80 35 88 -61 c48 -33 98 -70 112 -81 27 -20 117 -49
158 -49 20 0 22 4 17 23 -22 70 -73 119 -225 215 -52 33 -94 64 -94 68 13 81
24 215 19 223 -3 6 -26 11 -50 11 -34 0 -47 -5 -55 -20z"/>
<path d="M4278 3138 c-13 -10 -17 -36 -20 -118 -3 -90 -7 -113 -31 -162 -31
-62 -46 -151 -29 -162 17 -10 86 29 113 63 13 17 34 44 46 60 14 18 48 39 90
56 100 39 113 50 113 90 0 51 -31 63 -99 40 -58 -19 -71 -15 -71 23 0 94 -58
151 -112 110z"/>
<path d="M3193 3103 c-40 -8 -48 -28 -28 -80 28 -72 54 -93 115 -93 95 0 111
30 65 128 l-24 52 -53 -1 c-29 -1 -63 -4 -75 -6z"/>
<path d="M6611 3086 c-52 -29 -65 -99 -31 -166 11 -22 20 -43 20 -47 0 -4 -27
19 -60 52 l-59 59 -11 -28 c-18 -48 -11 -82 26 -135 32 -48 33 -51 10 -36 -40
27 -60 13 -53 -36 13 -99 140 -145 233 -84 47 31 40 64 -14 65 -39 0 -15 17
34 25 58 8 86 35 82 78 l-3 32 -55 -3 -55 -2 36 19 c110 61 79 222 -43 221
-18 -1 -44 -7 -57 -14z"/>
<path d="M4655 3057 c-23 -19 -28 -35 -37 -107 -13 -105 -23 -117 -147 -179
-97 -48 -201 -132 -201 -163 0 -40 140 -35 185 6 15 14 67 45 116 71 l88 46
92 -56 c51 -30 102 -55 114 -55 12 0 32 11 45 25 29 31 23 45 -41 93 -24 18
-64 49 -88 69 l-44 36 7 81 c4 45 9 90 12 102 7 26 -19 54 -51 54 -13 0 -36
-10 -50 -23z"/>
<path d="M1031 3020 c-118 -56 -142 -86 -107 -132 18 -24 33 -23 100 7 73 32
104 32 177 -6 71 -35 97 -34 119 3 21 38 10 52 -81 105 -101 59 -128 62 -208
23z"/>
<path d="M4872 2993 c-24 -21 -62 -91 -62 -115 0 -44 110 -66 159 -32 26 18
60 87 61 121 0 40 -118 60 -158 26z"/>
<path d="M6023 2973 c-13 -3 -36 -18 -53 -34 -78 -78 -24 -196 88 -192 42 1
43 1 27 -17 -9 -9 -34 -20 -56 -24 -52 -8 -61 -32 -25 -63 32 -27 65 -29 130
-7 26 9 49 14 52 12 2 -3 -15 -18 -38 -33 l-42 -28 28 -23 c15 -13 36 -24 47
-24 91 0 186 123 159 205 -6 19 -15 35 -18 35 -4 0 -20 -16 -35 -36 -16 -19
-31 -33 -34 -31 -2 3 6 28 18 57 27 63 19 123 -18 128 -16 2 -28 -9 -55 -52
-18 -31 -35 -56 -38 -56 -3 0 -3 24 -2 54 3 50 1 57 -30 89 -33 35 -65 47
-105 40z"/>
<path d="M1035 2840 c-57 -32 -68 -62 -37 -101 20 -23 20 -23 69 -8 47 15 52
15 84 -2 45 -24 56 -23 74 5 15 22 15 27 1 54 -21 40 -79 82 -113 81 -15 0
-50 -13 -78 -29z"/>
<path d="M3391 2684 c-17 -14 -31 -31 -31 -38 0 -7 22 -37 48 -66 l49 -54 -43
-34 c-45 -34 -61 -66 -49 -101 10 -32 49 -36 97 -10 102 55 123 62 216 76 53
8 108 21 120 29 23 15 23 16 5 36 -26 28 -65 47 -124 58 -66 13 -108 33 -176
86 -31 24 -62 44 -69 44 -7 0 -26 -12 -43 -26z"/>
<path d="M6384 2664 c-16 -38 -21 -104 -10 -123 11 -18 34 -13 50 11 15 20 16
21 34 5 24 -22 29 -21 42 3 8 14 7 26 -1 43 -14 27 -80 97 -92 97 -4 0 -15
-16 -23 -36z"/>
<path d="M6924 2670 c-30 -12 -54 -49 -54 -84 l0 -29 -24 22 c-75 71 -147 -85
-86 -184 33 -54 99 -82 128 -53 8 8 8 16 0 32 -7 14 4 8 30 -16 43 -39 69 -46
103 -28 26 15 24 31 -11 75 -16 20 -27 41 -24 46 7 12 5 12 44 -16 51 -38 94
-34 141 14 49 48 54 102 14 149 -46 55 -121 47 -186 -21 l-41 -41 7 72 c8 77
5 81 -41 62z"/>
<path d="M3041 2616 c-80 -17 -146 -37 -149 -44 -5 -15 55 -42 193 -89 129
-44 179 -46 241 -7 70 43 74 55 34 101 -74 85 -100 88 -319 39z"/>
<path d="M3994 2631 c-56 -25 -87 -71 -92 -137 -5 -66 10 -93 76 -135 58 -36
94 -37 157 0 70 40 92 91 73 174 -11 49 -30 72 -80 98 -47 24 -82 24 -134 0z"/>
<path d="M1074 2620 c-45 -18 -68 -91 -48 -145 10 -25 62 -47 94 -40 33 7 90
67 90 94 0 27 -39 72 -76 87 -19 8 -35 14 -36 13 -2 0 -13 -4 -24 -9z"/>
<path d="M4634 2594 c-79 -48 -97 -55 -180 -64 -88 -11 -156 -37 -152 -58 5
-26 63 -53 135 -63 74 -10 109 -29 193 -104 29 -25 57 -44 63 -42 13 4 57 65
57 79 0 5 -21 32 -47 60 l-48 50 41 37 c40 35 64 69 64 90 0 15 -37 51 -53 51
-7 0 -40 -16 -73 -36z"/>
<path d="M6590 2587 c-15 -7 -28 -27 -35 -49 -16 -57 -25 -61 -68 -33 l-36 25
-32 -35 c-18 -19 -36 -35 -41 -35 -5 0 -21 14 -36 31 -25 30 -29 31 -80 26
-31 -3 -62 -13 -71 -22 -15 -14 -14 -19 5 -53 46 -78 110 -94 116 -29 l3 32
24 -39 c13 -21 25 -54 26 -73 3 -42 4 -44 61 -54 26 -5 55 -16 65 -25 16 -15
19 -13 39 25 15 31 28 43 51 48 39 7 47 27 25 63 -17 31 -22 125 -6 135 5 3
16 -10 24 -30 25 -58 67 -45 79 25 4 19 9 45 13 58 6 21 4 22 -47 22 -30 0
-65 -6 -79 -13z"/>
<path d="M4810 2521 c-25 -16 -56 -41 -68 -54 l-23 -25 30 -35 c47 -52 90 -70
159 -62 129 14 342 61 342 75 0 9 -317 121 -360 127 -27 4 -45 -2 -80 -26z"/>
<path d="M5923 2453 c-20 -7 -16 -25 21 -86 19 -31 32 -57 29 -57 -3 0 -18 11
-35 25 -55 46 -105 45 -159 -3 -44 -40 -50 -97 -14 -140 54 -64 170 -62 187 4
4 17 15 37 24 45 15 12 16 7 13 -56 l-4 -70 40 0 c37 0 41 3 51 35 11 33 14
35 65 40 51 5 55 7 66 40 16 48 16 84 -3 128 -32 77 -101 117 -134 78 -9 -12
-7 -21 11 -45 38 -51 13 -46 -40 8 -27 28 -56 51 -65 51 -8 0 -20 2 -28 4 -7
3 -19 2 -25 -1z"/>
<path d="M3728 2391 c-31 -10 -104 -44 -163 -75 l-106 -56 -94 54 c-127 74
-130 74 -155 34 -32 -53 -27 -64 58 -118 44 -28 84 -61 90 -75 7 -14 12 -63
13 -108 1 -119 6 -131 55 -135 60 -4 68 11 72 135 l4 104 124 59 c139 67 218
131 212 172 -4 30 -36 33 -110 9z"/>
<path d="M6647 2403 c-4 -3 -7 -22 -7 -41 0 -20 -8 -44 -17 -55 -17 -18 -17
-20 2 -34 22 -17 108 -13 144 7 21 11 21 11 -8 54 -17 24 -46 51 -65 60 -39
18 -40 18 -49 9z"/>
<path d="M4270 2350 c0 -48 32 -84 156 -176 62 -46 117 -92 122 -101 5 -10 12
-62 14 -117 4 -105 15 -126 63 -126 48 0 59 21 65 126 3 55 9 104 13 111 4 7
45 33 91 58 110 59 112 63 86 114 -11 23 -27 41 -34 41 -8 0 -58 -22 -112 -49
l-98 -49 -100 68 c-111 75 -184 114 -233 125 -32 6 -33 5 -33 -25z"/>
<path d="M6282 2305 c-28 -35 -56 -111 -48 -130 3 -10 14 -14 28 -11 13 3 39
7 59 11 37 6 79 37 79 59 0 7 -15 17 -32 22 -28 8 -33 15 -33 39 0 39 -27 44
-53 10z"/>
<path d="M3880 2283 c-14 -9 -56 -45 -93 -80 -38 -34 -94 -74 -125 -88 -102
-47 -107 -50 -110 -73 -2 -13 4 -35 13 -49 18 -27 12 -27 138 -7 l37 6 0 -50
c0 -74 13 -102 48 -102 52 0 61 16 70 125 7 83 15 114 46 183 53 118 42 181
-24 135z"/>
<path d="M4147 2274 c-14 -14 -7 -56 25 -149 31 -92 32 -96 20 -165 -21 -124
-14 -150 39 -150 37 0 55 20 74 85 18 64 24 65 103 33 l54 -23 24 28 c35 41
31 63 -18 93 -122 77 -152 101 -188 153 -20 31 -46 64 -56 73 -22 19 -67 32
-77 22z"/>
<path d="M4006 2223 c-24 -48 -36 -130 -36 -247 l0 -114 -90 -52 c-100 -59
-130 -84 -130 -106 0 -25 31 -64 51 -64 10 0 63 23 117 51 l99 50 67 -50 c115
-87 142 -95 165 -45 16 35 -5 70 -78 134 -35 30 -64 66 -70 84 -6 17 -10 94
-9 171 0 106 -3 149 -15 178 -20 46 -50 50 -71 10z"/>
<path d="M6510 2232 c-25 -8 -51 -16 -57 -18 -30 -8 -12 -56 39 -110 l52 -56
19 43 c25 59 33 125 17 144 -14 17 -11 17 -70 -3z"/>
<path d="M6690 2212 c-43 -21 -70 -72 -70 -133 0 -70 31 -86 57 -29 l12 25 0
-30 c0 -16 -6 -41 -14 -55 -8 -14 -14 -37 -15 -51 0 -25 36 -69 57 -69 7 0 24
25 38 55 15 30 29 55 31 55 1 0 3 -18 2 -39 0 -49 27 -96 68 -116 47 -22 80
-18 115 13 26 23 33 38 37 80 4 46 2 54 -24 80 -28 28 -103 50 -125 37 -5 -4
-9 -3 -9 2 0 4 24 17 53 28 98 38 66 75 -66 76 -60 0 -69 2 -53 12 10 7 28 20
40 29 21 18 21 18 2 33 -27 20 -93 19 -136 -3z"/>
<path d="M3170 2142 c-25 -12 -44 -34 -65 -74 -38 -72 -30 -81 69 -86 l74 -4
27 40 c14 21 28 55 31 74 6 32 3 36 -29 51 -44 21 -63 21 -107 -1z"/>
<path d="M6300 2130 c-40 -10 -60 -33 -60 -71 0 -30 -13 -43 -52 -53 -31 -7
-48 -48 -31 -75 8 -12 24 -15 72 -13 72 5 79 -8 18 -32 -50 -19 -77 -58 -77
-111 0 -47 13 -71 50 -90 37 -19 73 -19 110 0 58 30 79 119 39 169 -39 50 -5
45 71 -10 33 -24 35 -24 48 -7 18 24 8 71 -23 103 -31 32 -31 37 -2 36 45 -2
31 77 -23 129 -31 30 -83 39 -140 25z"/>
<path d="M4761 2050 c-20 -9 -23 -15 -17 -43 8 -38 54 -116 78 -131 12 -7 35
-7 80 3 34 7 66 15 70 17 10 6 -38 115 -62 138 -22 22 -111 32 -149 16z"/>
<path d="M3605 1924 c-66 -24 -90 -57 -134 -180 -44 -123 -75 -234 -68 -241
14 -13 281 228 301 272 14 28 14 41 3 96 -11 57 -16 64 -37 66 -14 1 -43 -5
-65 -13z"/>
<path d="M4340 1878 c-6 -18 -13 -60 -16 -93 -5 -55 -3 -64 24 -105 35 -52
229 -256 236 -249 3 3 -3 59 -14 124 -38 244 -49 268 -145 322 -33 18 -63 33
-67 33 -3 0 -11 -15 -18 -32z"/>
<path d="M1487 1817 c-10 -6 -21 -26 -25 -42 -5 -17 -18 -34 -30 -40 -36 -16
-24 -42 32 -70 14 -7 23 -23 26 -50 5 -37 9 -42 62 -67 34 -17 59 -35 63 -49
12 -38 -9 -43 -72 -15 -113 51 -212 53 -223 6 -3 -14 -15 -27 -25 -29 -52 -9
-57 -41 -15 -91 17 -19 30 -42 30 -52 0 -32 28 -31 69 1 46 37 48 37 47 9 -1
-32 38 -36 75 -9 39 29 78 43 100 36 29 -10 23 -19 -37 -59 -41 -27 -60 -48
-74 -81 -13 -31 -27 -46 -45 -51 -33 -8 -33 -41 -1 -54 21 -8 25 -17 28 -57 3
-41 6 -48 26 -51 13 -2 34 4 48 13 24 15 26 15 43 -6 16 -20 18 -20 34 -4 10
10 17 32 17 56 0 35 3 41 30 50 28 10 30 14 30 62 0 98 32 103 47 7 7 -51 10
-55 38 -60 28 -5 30 -8 27 -45 -2 -25 3 -48 12 -60 16 -19 16 -19 30 -1 14 17
16 17 38 2 46 -32 98 -8 98 46 0 17 7 27 20 31 13 3 20 14 20 31 0 20 -8 29
-34 40 -30 12 -34 19 -33 47 2 34 1 35 -95 94 -18 11 -33 27 -33 35 0 26 39
22 87 -10 55 -37 93 -37 92 -2 0 12 1 22 2 22 2 0 24 -14 48 -32 45 -31 46
-31 66 -13 11 10 19 24 16 31 -2 6 9 24 25 40 16 15 29 32 29 37 0 5 -13 21
-29 36 -22 20 -28 34 -24 50 3 11 0 28 -7 36 -11 14 -16 14 -39 -1 -14 -9 -38
-28 -53 -41 l-27 -25 -3 33 c-3 29 -6 34 -27 31 -13 -1 -38 -15 -57 -31 -40
-35 -72 -47 -87 -32 -17 17 1 40 64 83 53 36 56 43 44 83 -5 17 0 24 26 35 38
17 61 50 41 57 -23 9 -42 34 -42 58 0 29 -26 45 -73 45 -56 0 -97 -19 -97 -44
0 -12 -13 -35 -30 -51 -28 -27 -30 -33 -29 -98 1 -49 -3 -73 -14 -84 -26 -26
-41 18 -34 104 l6 74 -32 -3 c-30 -3 -33 0 -41 37 -4 22 -10 46 -12 53 -5 20
-32 14 -39 -9 l-7 -21 -22 21 c-26 24 -45 26 -69 8z"/>
<path d="M3950 1619 c-23 -33 -42 -70 -42 -82 0 -12 17 -51 38 -86 l38 -64 48
52 c55 60 65 89 48 132 -16 37 -67 109 -79 109 -4 0 -27 -27 -51 -61z"/>
<path d="M3250 801 c-17 -4 -29 -18 -36 -41 -8 -23 -19 -36 -33 -38 -11 -2
-21 -10 -21 -17 0 -18 48 -55 71 -55 26 0 33 -19 15 -39 -9 -10 -16 -20 -16
-23 0 -2 21 -19 48 -35 26 -17 58 -43 71 -57 l24 -26 -40 0 c-32 0 -50 8 -83
35 -50 42 -68 44 -76 8 -3 -16 -6 -31 -7 -35 -1 -4 -22 8 -46 27 -24 19 -47
35 -50 35 -17 0 -56 -94 -56 -133 1 -43 36 -111 63 -122 8 -3 30 9 50 25 20
17 38 27 39 23 0 -5 4 -20 7 -35 8 -37 26 -35 76 7 41 34 83 45 95 25 10 -16
-13 -39 -66 -65 -54 -28 -66 -49 -39 -68 19 -13 17 -15 -30 -37 -28 -13 -50
-28 -50 -34 0 -6 12 -22 25 -35 14 -13 25 -31 25 -41 0 -32 28 -44 103 -44
l72 -1 -3 52 -4 51 34 -1 33 -2 0 85 c0 71 3 85 17 88 12 2 19 -9 27 -48 6
-28 11 -63 11 -79 0 -15 6 -35 13 -46 13 -17 15 -17 30 5 15 22 16 20 14 -41
l-2 -64 72 1 c80 0 103 12 103 54 0 20 6 29 21 33 12 3 19 12 17 19 -4 13 -56
52 -81 61 -8 3 -6 10 7 19 31 24 14 65 -30 77 -36 10 -84 46 -84 63 0 20 62 5
108 -26 50 -33 72 -33 72 1 0 26 30 25 61 -1 17 -15 37 -25 43 -23 17 5 76
108 76 132 0 11 -16 32 -35 48 -19 15 -35 37 -35 47 0 25 -10 25 -49 3 -29
-17 -32 -17 -60 0 -16 9 -31 17 -34 17 -2 0 -21 -13 -42 -30 -38 -30 -88 -40
-100 -20 -12 19 22 56 62 68 21 6 47 18 58 27 20 15 20 15 -5 36 -16 14 -20
23 -13 26 60 21 107 91 57 86 -18 -2 -21 3 -20 40 l1 42 -85 0 -85 0 3 -65 c1
-49 0 -61 -8 -47 -6 9 -17 17 -25 17 -16 0 -20 -15 -29 -95 -12 -102 -56 -76
-56 33 l0 65 -31 -7 -31 -6 4 53 3 52 -55 2 c-30 1 -66 -2 -80 -6z"/>
</g>
</svg>
